Coordinates
version=1
nRows=21
nColumns=33
inDegrees=yes

Units are S.I. units (second, meters, Newtons, ...)
Angles are in degrees.

endheader
time	ground_thorax_rot_x	ground_thorax_rot_y	ground_thorax_rot_z	ground_thorax_tx	ground_thorax_ty	ground_thorax_tz	clav_prot_r	clav_elev_r	scapula_abduction_r	scapula_elevation_r	scapula_upward_rot_r	scapula_winging_r	shoulder_elv_r	plane_of_elev_r	axial_rot_r	elbow_flexion_r	pro_sup_r	wrist_flex_r	wrist_dev_r	clav_prot_l	clav_elev_l	scapula_abduction_l	scapula_elevation_l	scapula_upward_rot_l	scapula_winging_l	shoulder_elv_l	plane_of_elev_l	axial_rot_l	elbow_flexion_l	pro_sup_l	wrist_flex_l	wrist_dev_l
      9.11000000	    -35.53596905	      7.91870266	     -1.23652436	     93.65253864	    768.18923537	    -41.75705073	      9.16116040	    -45.00000000	     45.00000000	    -45.00000000	      5.97597512	  -2608.82599371	   -471.50060218	    161.77860522	     22.15695771	    361.23966298	    169.03848594	     11.20111443	     12.25143428	     19.24329003	     25.24883452	    -45.00000000	    -43.14345861	    -45.00000000	  -4253.87024820	  -1340.73940583	     21.75287428	   -179.99999979	     -6.51213931	    110.44921317	      9.75920185	     -6.88319558
      9.12000000	    -35.57487604	      7.91893911	     -1.02202720	     93.21147637	    767.74492987	    -41.70389608	      9.43626655	    -45.00000000	     45.00000000	    -45.00000000	      5.86925943	  -2608.97345229	   -471.46325879	    161.81993225	     22.28045336	    361.38968307	    168.98100897	     11.11258907	     12.19620561	     19.06546950	     24.98355755	    -45.00000000	    -42.87204701	    -45.00000000	  -4253.55484993	  -1340.84718816	     21.80339496	   -179.99999979	     -6.44456138	    110.81677526	      9.73286267	     -6.62703971
      9.13000000	    -35.62147013	      8.12335061	     -1.11835117	     92.57538573	    767.33259492	    -41.64549759	      9.26825902	    -45.00000000	     45.00000000	    -45.00000000	      5.67585620	  -2608.94497293	   -471.31613013	    161.80233652	     22.52134599	    361.42197726	    168.84693925	     11.35999886	     12.32341937	     19.11686100	     25.09779301	    -45.00000000	    -43.01352603	    -45.00000000	  -4253.81506468	  -1341.00791895	     21.59467864	   -179.99999979	     -6.19013444	    111.21343504	      9.74095520	     -7.11235965
      9.14000000	    -35.76965085	      8.33028340	     -1.30942180	     91.75375439	    766.95199860	    -41.59146096	      9.44778127	    -45.00000000	     45.00000000	    -45.00000000	      5.85774142	  -2609.05078466	   -471.43256810	    161.78446132	     22.66750792	    361.41946882	    168.69804287	     11.14195006	     12.23071105	     19.17335557	     25.21155092	    -45.00000000	    -43.06847245	    -45.00000000	  -4253.55322890	  -1340.94784035	     21.73233440	   -179.99999979	     -6.06507269	    111.85243899	      9.70392688	     -6.71041545
      9.15000000	    -35.88501454	      8.40417420	     -1.22249469	     90.76296906	    766.60283644	    -41.54840915	      9.22197895	    -45.00000000	     45.00000000	    -45.00000000	      5.85921799	  -2609.12302015	   -471.32863742	    161.91603526	     22.93479308	    361.59525533	    168.51670581	     11.43749783	     12.39135341	     19.15563977	     25.19685008	    -45.00000000	    -43.10704225	    -45.00000000	  -4253.62096162	  -1341.16579474	     21.45805861	   -179.99999979	     -5.98432050	    112.33252443	      9.78044996	     -7.37946150
      9.16000000	    -36.03605003	      8.64219324	     -1.43905642	     89.60894777	    766.27892790	    -41.51903388	      9.37452049	    -45.00000000	     45.00000000	    -45.00000000	      5.93057758	  -2609.15282004	   -471.35160526	    161.95213333	     23.13749408	    361.44854831	    168.34298162	     11.31230925	     12.31996224	     19.26184241	     25.44055993	    -45.00000000	    -43.27832167	    -45.00000000	  -4253.53935254	  -1341.20132179	     21.46866772	   -179.99999979	     -5.85848884	    113.21493228	      9.77610205	     -7.21549792
      9.17000000	    -36.07239098	      8.99477118	     -1.56266865	     88.30878118	    765.97745029	    -41.50251662	      9.26539006	    -45.00000000	     45.00000000	    -45.00000000	      6.17899253	  -2609.53100062	   -471.37117917	    161.83304035	     23.40009576	    361.54667396	    168.25197872	     11.25284101	     12.36983050	     19.35373570	     25.31626110	    -45.00000000	    -43.15060255	    -45.00000000	  -4253.25737218	  -1341.14147361	     21.67233689	   -179.99999979	     -5.80457595	    114.00677347	      9.83991044	     -7.11756599
      9.18000000	    -36.19695321	      9.14058103	     -1.65871677	     86.86588526	    765.69100700	    -41.49567823	      9.19039296	    -45.00000000	     45.00000000	    -45.00000000	      6.16331401	  -2609.31481643	   -471.16900879	    162.21034980	     23.78321457	    361.31742070	    168.22765756	     11.42133573	     12.33332971	     19.20731892	     25.51376172	    -45.00000000	    -43.47280904	    -45.00000000	  -4253.56077373	  -1341.48807273	     21.36078154	   -179.99999979	     -5.74085585	    114.79362863	      9.83023116	     -7.66215061
      9.19000000	    -36.44971389	      9.33768319	     -1.78508653	     85.28717414	    765.41337145	    -41.49401756	      9.25190109	    -45.00000000	     45.00000000	    -45.00000000	      6.01195331	  -2609.50055396	   -471.36770012	    162.10949718	     23.98886025	    361.34541934	    168.20069547	     11.38497338	     12.38320208	     19.39180669	     25.59493542	    -45.00000000	    -43.59243731	    -45.00000000	  -4253.40603788	  -1341.43322284	     21.37719842	   -179.99999979	     -5.41138488	    116.01059653	      9.87043540	     -7.57095141
      9.20000000	    -36.54176878	      9.46067237	     -1.81358086	     83.57940594	    765.13970659	    -41.49344875	      9.36202736	    -45.00000000	     45.00000000	    -45.00000000	      6.06611507	  -2609.79304384	   -471.41510773	    161.97396472	     24.28813095	    361.42477998	    168.28995867	     11.30237106	     12.43997311	     19.32877413	     25.57948365	    -45.00000000	    -43.40224390	    -45.00000000	  -4253.09849899	  -1341.45155482	     21.38679316	   -179.99999979	     -5.21611927	    117.26011984	      9.89478962	     -7.48945541
      9.21000000	    -36.65357542	      9.51181478	     -1.71713610	     81.74205080	    764.86482190	    -41.49021367	      9.26384379	    -45.00000000	     45.00000000	    -45.00000000	      5.96458504	  -2610.06701324	   -471.37471142	    161.89268689	     24.51299331	    361.50919745	    168.45648677	     11.38170199	     12.42400882	     19.28981033	     25.61066446	    -45.00000000	    -43.35467811	    -45.00000000	  -4253.06506201	  -1341.65435682	     21.13519330	   -179.99999979	     -5.10365152	    118.51366849	      9.92758277	     -7.84583529
      9.22000000	    -36.81012351	      9.52691363	     -1.66576617	     79.77834543	    764.58554601	    -41.48171875	      9.50672419	    -45.00000000	     45.00000000	    -45.00000000	      5.67776939	  -2610.08393011	   -471.35084430	    162.02107514	     24.67868325	    361.41672358	    168.74130901	     11.41323210	     12.43309756	     19.22998198	     25.66597827	    -45.00000000	    -43.41219858	    -45.00000000	  -4252.96152770	  -1341.87480104	     21.03092102	   -179.99999979	     -4.84070380	    120.16089225	     10.00539885	     -7.78462162
      9.23000000	    -36.94403424	      9.57457196	     -1.50829230	     77.69492228	    764.30006210	    -41.46618529	      9.64885263	    -45.00000000	     45.00000000	    -45.00000000	      5.33074879	  -2610.05668114	   -471.15191138	    162.25417944	     24.86600151	    361.30016791	    169.06369708	     11.52535487	     12.40338518	     19.18451889	     25.63335590	    -45.00000000	    -43.50448289	    -45.00000000	  -4252.94011187	  -1342.18539882	     20.85627901	   -179.99999979	     -4.65860958	    122.19592547	     10.13896576	     -7.99035241
      9.24000000	    -37.02802138	      9.63702996	     -1.41208566	     75.48611145	    764.00353461	    -41.44167835	      9.64919095	    -45.00000000	     45.00000000	    -45.00000000	      5.17178035	  -2610.38752244	   -471.13709719	    162.13981760	     25.03404569	    361.33669335	    169.44880941	     11.56325218	     12.45358930	     19.08283915	     25.49890249	    -45.00000000	    -43.47240232	    -45.00000000	  -4252.76173493	  -1342.42892816	     20.82110136	   -179.99999979	     -4.44787547	    124.26593243	     10.19945394	     -8.17686829
      9.25000000	    -37.10827805	      9.63184831	     -1.31974444	     73.16000930	    763.69649228	    -41.40809013	      9.81516366	    -45.00000000	     45.00000000	    -45.00000000	      4.91763035	  -2610.55229648	   -471.07188422	    162.14775753	     25.22563498	    361.31137323	    169.88663066	     11.61695686	     12.47207965	     19.03734242	     25.51382894	    -45.00000000	    -43.39649138	    -45.00000000	  -4252.60215379	  -1342.64385471	     20.64945355	   -179.99999979	     -4.25896246	    126.47380339	     10.26451222	     -8.42101296
      9.26000000	    -37.22405542	      9.63067293	     -1.16657101	     70.72159038	    763.37377771	    -41.36232668	     10.09632696	    -45.00000000	     45.00000000	    -45.00000000	      4.44345583	  -2610.58010159	   -470.93917892	    162.24269647	     25.46519065	    361.21773559	    170.36352608	     11.67123457	     12.47477499	     18.98392715	     25.59149139	    -45.00000000	    -43.20776432	    -45.00000000	  -4252.42092863	  -1342.73162999	     20.38866873	   -179.99999979	     -4.05071691	    129.02240490	     10.32070772	     -8.74054031
      9.27000000	    -37.29871472	      9.56644102	     -0.92405451	     68.18343295	    763.05620347	    -41.31442215	      9.86919839	    -45.00000000	     45.00000000	    -45.00000000	      4.31936862	  -2611.02546070	   -471.00292123	    162.16890792	     25.53739409	    361.37491272	    170.86677689	     11.71053686	     12.56186024	     18.76554084	     25.25642754	    -45.00000000	    -43.16042584	    -45.00000000	  -4252.22976452	  -1343.11559383	     20.34454342	   -179.99999979	     -3.74322292	    131.25380190	     10.37783296	     -8.88264320
      9.28000000	    -37.32922116	      9.64426776	     -0.91497548	     65.54791335	    762.71270840	    -41.24708656	     10.33270748	    -45.00000000	     45.00000000	    -45.00000000	      3.84782960	  -2611.14685128	   -470.90576945	    162.12527122	     25.85513292	    361.25054426	    171.38962681	     11.73689173	     12.58187365	     18.76186600	     25.40432741	    -45.00000000	    -43.03402869	    -45.00000000	  -4252.03799859	  -1343.18994583	     20.14437719	   -179.99999979	     -3.62253854	    133.70332929	     10.38091658	     -9.23999479
      9.29000000	    -37.36982372	      9.49831464	     -0.66399768	     62.79246805	    762.29407519	    -41.13455668	     10.55424868	    -45.00000000	     45.00000000	    -45.00000000	      3.28367161	  -2611.36378018	   -470.76684278	    162.13902593	     26.11133560	    361.20736547	    172.07211963	     11.72135877	     12.61639189	     18.56857023	     25.26022753	    -45.00000000	    -42.85661702	    -45.00000000	  -4251.82499564	  -1343.46834973	     19.98288793	   -179.99999979	     -3.40434182	    136.27034653	     10.40896153	     -9.51193326
      9.30000000	    -37.36842373	      9.27573613	     -0.31231043	     59.91397404	    761.75284040	    -40.94993100	     10.68982945	    -45.00000000	     45.00000000	    -45.00000000	      2.66044886	  -2611.66210719	   -470.67585740	    162.16262073	     26.49205548	    361.20372334	    173.01474787	     11.63989394	     12.69477079	     18.26641993	     25.02210849	    -44.92316794	    -42.71597447	    -45.00000000	  -4251.62047210	  -1343.77755354	     19.80965091	   -179.99999979	     -3.14184838	    138.75507874	     10.45520004	     -9.72491536
      9.31000000	    -37.35233004	      8.49981670	      0.41445096	     56.89613527	    761.03974885	    -40.66830662	     11.39666027	    -45.00000000	     45.00000000	    -45.00000000	      1.25559859	  -2611.87218909	   -470.52767821	    162.14172031	     26.86976979	    361.10479547	    174.29221263	     11.44633450	     12.80419602	     17.72368616	     24.89583641	    -44.13089698	    -42.59090763	    -45.00000000	  -4251.56671799	  -1343.90209889	     19.66627623	   -179.99999979	     -2.91976636	    141.38304944	     10.49327205	     -9.97201226
